<svg xmlns="http://www.w3.org/2000/svg" xmlns:xlink="http://www.w3.org/1999/xlink" width="512" height="512" viewBox="0 0 512 512"><defs><symbol id="d" viewBox="0 0 172 172"><path fill="url(#b)" stroke="#ffed78" stroke-linecap="round" stroke-linejoin="round" stroke-width="4" d="M160.62 107.4c-47.17 0-85.41-37.73-85.41-84.26A83 83 0 0 1 78 2C35.27 6.61 2 42.33 2 85.73 2 132.27 40.24 170 87.41 170A85.16 85.16 0 0 0 170 106.87a88 88 0 0 1-9.38.53"><animateTransform additive="sum" attributeName="transform" dur="6s" repeatCount="indefinite" type="rotate" values="-15 86 86; 9 86 86; -15 86 86"/></path></symbol><symbol id="e" viewBox="0 0 350 222"><path fill="url(#a)" stroke="#e6effc" stroke-miterlimit="10" stroke-width="6" d="M291 107c-.85 0-1.68.09-2.53.13A83.9 83.9 0 0 0 135.6 42.92 55.91 55.91 0 0 0 51 91a57 57 0 0 0 .8 9.08A60 60 0 0 0 63 219c1.35 0 2.67-.11 4-.2v.2h224a56 56 0 0 0 0-112Z"/></symbol><symbol id="c" viewBox="0 0 351 246"><use xlink:href="#d" width="172" height="172"/><use xlink:href="#e" width="350" height="222" transform="translate(1 24)"/></symbol><linearGradient id="a" x1="99.45" x2="232.64" y1="30.68" y2="261.37" gradientUnits="userSpaceOnUse"><stop offset="0" stop-color="#f3f7fe"/><stop offset=".45" stop-color="#f3f7fe"/><stop offset="1" stop-color="#deeafb"/></linearGradient><linearGradient id="b" x1="34.67" x2="119.21" y1="18.56" y2="164.99" gradientUnits="userSpaceOnUse"><stop offset="0" stop-color="#f1fba1"/><stop offset=".45" stop-color="#f1fba1"/><stop offset="1" stop-color="#fdee83"/></linearGradient></defs><use xlink:href="#c" width="351" height="246" transform="translate(80 121)"/></svg>